<svg xmlns="http://www.w3.org/2000/svg" viewBox="0 0 1150 145" width="1150" height="145">
	<style>
		tspan { white-space:pre }
	</style>
	<path id="ДРУГОЕ ЛЕВО " fill="#000000" aria-label="ДРУГОЕ ЛЕВО"  d="M50.85 93L50.85 51L71.85 30L92.85 30L92.85 93ZM40.5 135L40.5 114L103.35 114L103.35 135L124.35 135L124.35 93L113.7 93L113.7 9L61.35 9L29.85 40.5L29.85 93L19.5 93L19.5 135ZM155.85 61.65L155.85 30L208.2 30L208.2 61.65ZM155.85 114L155.85 82.65L218.7 82.65L229.05 72.15L229.05 19.65L218.7 9L134.85 9L134.85 114ZM248.4 114L300.9 114L332.25 82.65L332.25 9L311.4 9L311.4 51.15L279.9 51.15L259.05 30.15L259.05 9L238.05 9L238.05 40.65L269.4 72.15L311.4 72.15L290.4 93L248.4 93ZM366.75 114L366.75 30L434.85 30L434.85 9L345.75 9L345.75 114ZM466.35 93L466.35 30L518.7 30L518.7 93ZM529.2 114L539.55 103.65L539.55 19.65L529.2 9L455.7 9L445.35 19.65L445.35 103.65L455.7 114ZM643.65 114L643.65 93L575.55 93L575.55 72.15L638.4 72.15L638.4 51.15L575.55 51.15L575.55 30L643.65 30L643.65 9L554.55 9L554.55 114ZM736.65 114L736.65 51L757.5 30L789 30L789 114L809.85 114L809.85 9L747 9L715.65 40.5L715.65 114ZM913.95 114L913.95 93L845.85 93L845.85 72.15L908.7 72.15L908.7 51.15L845.85 51.15L845.85 30L913.95 30L913.95 9L824.85 9L824.85 114ZM948.45 93L948.45 72.15L1000.8 72.15L1000.8 93ZM948.45 51.15L948.45 30L1000.8 30L1000.8 51.15ZM1011.3 114L1021.65 103.65L1021.65 72.15L1011.3 61.65L1021.65 51.15L1021.65 19.65L1011.3 9L927.45 9L927.45 114ZM1057.65 93L1057.65 30L1110 30L1110 93ZM1120.5 114L1130.85 103.65L1130.85 19.65L1120.5 9L1047 9L1036.65 19.65L1036.65 103.65L1047 114Z" />
</svg>